<?xml version="1.0" encoding="UTF-8" standalone="no"?>
<svg
   xmlns:dc="http://purl.org/dc/elements/1.1/"
   xmlns:cc="http://creativecommons.org/ns#"
   xmlns:rdf="http://www.w3.org/1999/02/22-rdf-syntax-ns#"
   xmlns:svg="http://www.w3.org/2000/svg"
   xmlns="http://www.w3.org/2000/svg"
   xmlns:sodipodi="http://sodipodi.sourceforge.net/DTD/sodipodi-0.dtd"
   xmlns:inkscape="http://www.inkscape.org/namespaces/inkscape"
   enable-background="new 0 0 512 512"
   id="Layer_1"
   version="1.1"
   viewBox="0 0 512 512"
   xml:space="preserve"
   inkscape:version="0.91 r13725"
   sodipodi:docname="1455332619_feedly.svg"><metadata
     id="metadata30"><rdf:RDF><cc:Work
         rdf:about=""><dc:format>image/svg+xml</dc:format><dc:type
           rdf:resource="http://purl.org/dc/dcmitype/StillImage" /><dc:title></dc:title></cc:Work></rdf:RDF></metadata><defs
     id="defs28" /><sodipodi:namedview
     pagecolor="#ffbdff"
     bordercolor="#666666"
     borderopacity="1"
     objecttolerance="10"
     gridtolerance="10"
     guidetolerance="10"
     inkscape:pageopacity="0"
     inkscape:pageshadow="2"
     inkscape:window-width="1366"
     inkscape:window-height="712"
     id="namedview26"
     showgrid="false"
     inkscape:zoom="0.4609375"
     inkscape:cx="-43.030956"
     inkscape:cy="199.97997"
     inkscape:window-x="0"
     inkscape:window-y="27"
     inkscape:window-maximized="1"
     inkscape:current-layer="Layer_1" /><g
     id="g5"
     style="fill:#6cc555;fill-opacity:1"><g
       id="g7"
       style="fill:#6cc555;fill-opacity:1"><g
         id="g9"
         style="fill:#6cc555;fill-opacity:1"><path
           style="fill:#6cc555;fill-opacity:1"
           d="M 256 0.90039062 C 114.6 0.90039063 0 115.50039 0 256.90039 C 0 398.30039 114.6 512.90039 256 512.90039 C 397.4 512.90039 512 398.30039 512 256.90039 C 512 115.50039 397.4 0.90039062 256 0.90039062 z M 256.01172 122.21289 C 258.62422 122.25039 261.25039 124.35 265.40039 128.5 L 287.69922 150.80078 C 292.99922 156.10078 293.10039 159.60078 287.90039 164.80078 C 243.50039 209.20078 197.7 254.59961 153.5 299.09961 C 149.8 302.29961 143.49922 302.00039 138.69922 301.90039 C 131.59922 302.50039 124.60078 299.39922 119.30078 293.19922 C 115.70078 288.99922 111.59922 285.4 107.69922 281.5 C 102.39922 276.2 102.40078 272.59961 107.80078 267.09961 C 116.5008 258.29961 125.3 249.7 134 241 C 171.6 203.4 209.19922 165.90078 246.69922 128.30078 C 250.79922 124.20078 253.39922 122.17539 256.01172 122.21289 z M 255.96289 238.75 C 258.10039 238.775 260.25 239.89961 262.5 242.09961 C 271.1 250.69961 279.80078 259.30039 288.30078 267.90039 C 292.90078 272.50039 292.89961 276.30078 288.09961 280.80078 C 262.99961 306.10078 236.50039 332.39922 211.40039 357.69922 C 208.00039 361.09922 202.6 360.50039 195.5 360.40039 C 187.9 360.80039 186.10039 359.60078 177.90039 351.80078 C 174.10039 347.20078 169.50078 343.3 165.30078 339 C 160.90078 334.4 160.80078 330.5 165.30078 326 C 193.40078 298 221.4 270 249.5 242 C 251.7 239.8 253.82539 238.725 255.96289 238.75 z M 256 355.03711 C 258 355.02461 259.99961 356.04961 262.09961 358.09961 C 270.99961 366.79961 279.79961 375.6 288.59961 384.5 C 292.69961 388.7 292.80078 392.59922 288.80078 396.69922 C 282.80078 402.89922 276.5 408.89961 270.5 415.09961 C 266.3 419.49961 260.9 417.50039 256 417.90039 C 245.1 417.90039 244.20078 417.9 236.30078 410 C 232.50078 405.6 228.1 401.79961 224 397.59961 C 219.3 392.79961 219.09922 388.79922 223.69922 384.19922 C 232.39922 375.49922 241.10039 366.79922 249.90039 358.19922 C 252.00039 356.09922 254 355.04961 256 355.03711 z "
           id="path11" /></g></g></g><path
     style="fill:#68b251"
     d="M 441.90052,80.999613 270.51803,250.2164 c 5.89413,5.89415 11.78747,11.78916 17.68161,17.78321 4.59999,4.6 4.59999,8.30039 0,12.90039 -25.09996,25.3 -51.59913,51.59844 -76.69909,76.89844 -3.39999,3.4 -8.80037,2.80117 -15.90036,2.70117 -7.59999,0.4 -9.39959,-0.79961 -17.59958,-8.59961 -1.5994,-1.89929 -3.29869,-3.59919 -4.99804,-5.39844 L 77.7,440.59922 C 123.79992,485.29922 186.70059,512.9 256.00048,512.9 397.40024,512.9 512,398.3 512,256.9 512,188.7 485.30045,126.89961 441.90052,80.999613 Z M 256.00048,355.03672 c 1.99999,-0.0125 3.9996,1.0125 6.0996,3.0625 8.89998,8.7 17.69997,17.50039 26.49995,26.40039 4.09999,4.2 4.20116,8.09922 0.20117,12.19922 -5.99999,6.2 -12.30076,12.20039 -18.30075,18.40039 -4.19999,4.4 -9.59998,2.40078 -14.49997,2.80078 -10.89999,0 -11.7992,-3.9e-4 -19.69919,-7.90039 -3.79999,-4.4 -8.20077,-8.20039 -12.30076,-12.40039 -4.69999,-4.8 -4.90077,-8.80039 -0.30078,-13.40039 8.69999,-8.7 17.40114,-17.4 26.20113,-26 2.09999,-2.1 4.0996,-3.14961 6.0996,-3.16211 z"
     id="path13"
     inkscape:connector-curvature="0" /><g
     id="Layer_1_1_" /><g
     id="g16" /><path
     d="M178,351.9c8.2,7.8,10,9,17.6,8.6c7.1,0.1,12.5,0.7,15.9-2.7c25.1-25.3,51.6-51.6,76.7-76.9  c4.6-4.6,4.6-8.3,0-12.9c-5.9-6-11.8-11.9-17.7-17.8L173,346.5C174.7,348.3,176.4,350,178,351.9z"
     id="path24"
     fill="#F1F2F2"
     style="fill:#ffffff;fill-opacity:0.33333334" /><g
     id="g3377" /></svg>