<?xml version="1.0" encoding="UTF-8" standalone="no"?>
<!-- Created with Inkscape (http://www.inkscape.org/) -->

<svg
   xmlns:dc="http://purl.org/dc/elements/1.1/"
   xmlns:cc="http://creativecommons.org/ns#"
   xmlns:rdf="http://www.w3.org/1999/02/22-rdf-syntax-ns#"
   xmlns:svg="http://www.w3.org/2000/svg"
   xmlns="http://www.w3.org/2000/svg"
   xmlns:sodipodi="http://sodipodi.sourceforge.net/DTD/sodipodi-0.dtd"
   xmlns:inkscape="http://www.inkscape.org/namespaces/inkscape"
   id="svg2"
   version="1.1"
   inkscape:version="0.91 r13725"
   xml:space="preserve"
   width="512"
   height="512"
   viewBox="0 0 512.00001 512.00001"
   sodipodi:docname="feedly-logo.svg"><metadata
     id="metadata8"><rdf:RDF><cc:Work
         rdf:about=""><dc:format>image/svg+xml</dc:format><dc:type
           rdf:resource="http://purl.org/dc/dcmitype/StillImage" /><dc:title></dc:title></cc:Work></rdf:RDF></metadata><defs
     id="defs6" /><sodipodi:namedview
     pagecolor="#fff0ff"
     bordercolor="#666666"
     borderopacity="1"
     objecttolerance="10"
     gridtolerance="10"
     guidetolerance="10"
     inkscape:pageopacity="0"
     inkscape:pageshadow="2"
     inkscape:window-width="1366"
     inkscape:window-height="712"
     id="namedview4"
     showgrid="false"
     inkscape:zoom="1.276"
     inkscape:cx="132.29911"
     inkscape:cy="208.97624"
     inkscape:window-x="0"
     inkscape:window-y="27"
     inkscape:window-maximized="1"
     inkscape:current-layer="g10" /><g
     id="g10"
     inkscape:groupmode="layer"
     inkscape:label="ink_ext_XXXXXX"
     transform="matrix(1.25,0,0,-1.25,0,511.99999)"><path
       inkscape:connector-curvature="0"
       id="path14"
       style="fill:#2bb24c;fill-opacity:0.94117647;fill-rule:nonzero;stroke:none"
       d="m 230.26082,174.5309 c -19.73457,-19.71918 -39.5352,-39.40204 -59.15857,-59.23693 -5.50917,-6.75622 -15.20305,-4.61454 -22.7677,-3.99096 -7.27179,4.68764 -12.93178,11.61165 -18.78444,17.91197 -3.90508,3.69854 -0.25432,8.53636 2.75238,11.31957 19.76099,19.68725 39.50107,39.3668 59.15857,59.16746 3.59131,3.48782 6.8248,7.5041 11.17356,10.1574 4.33886,1.86722 7.52611,-2.55862 10.41171,-5.04017 6.57048,-7.03509 14.05366,-13.24117 20.04944,-20.78491 2.63568,-3.3535 -0.43047,-7.11656 -2.83495,-9.50343 z m 2.0775,-93.151483 c -5.52568,-6.214334 -11.30568,-12.316922 -17.8002,-17.512103 -5.95615,-1.440708 -12.29544,-1.109541 -18.32425,-0.236485 -5.79321,2.933052 -9.7159,8.566743 -14.46761,12.901748 -3.37552,3.289981 -8.6656,8.235686 -4.30473,12.987843 7.34996,8.162582 15.20195,15.95524 23.33028,23.3738 3.02762,2.54596 7.54373,1.29021 9.98234,-1.48376 6.9448,-6.70888 13.78722,-13.546902 20.50083,-20.535316 2.63568,-2.343821 4.07242,-6.78639 1.08334,-9.495727 z M 123.26697,163.16796 c -5.71945,-6.8072 -15.78336,-5.02256 -23.524378,-3.81811 -6.825133,5.46954 -13.069515,11.80443 -18.574276,18.57419 -3.182523,3.74985 0.89023,7.65934 3.414603,10.29942 34.666681,34.51271 69.205751,69.17073 103.798781,103.74399 4.64932,4.51941 8.85936,9.55517 14.07677,13.43934 4.49739,2.24484 7.96869,-2.61917 10.95778,-5.19981 6.3602,-6.78627 13.57254,-12.79858 19.40869,-20.06708 3.01,-3.59021 -0.29285,-7.75842 -2.92964,-10.33796 -35.57837,-35.50576 -71.16555,-71.00712 -106.62833,-106.63398 z m 263.09788,59.84344 c -46.86864,46.87201 -93.73618,93.7187 -140.56519,140.60832 -6.85122,6.72573 -13.28519,14.40709 -22.32071,18.26373 -8.97496,4.26619 -19.37345,4.86842 -29.01119,2.81294 C 186.03446,382.7565 178.41367,378.138 172.3232,372.05303 119.63713,319.34927 66.933332,266.6411 14.229534,213.95826 8.1613707,207.90301 3.4221233,200.34276 1.4868473,191.92597 -2.8395541,176.78015 2.5921043,159.81335 13.683351,148.9117 50.836198,111.74163 88.010514,74.627487 125.1463,37.440128 c 8.30008,-8.463549 19.99329,-13.383435 31.85385,-13.245816 30.39289,-0.172024 60.77697,0.0215 91.14344,-0.09461 13.67163,-0.873022 27.49738,4.008161 37.17365,13.804922 33.66052,33.561917 67.22746,67.248466 100.87476,100.836466 5.48384,5.55652 11.41798,10.75962 15.87794,17.21121 8.20539,11.81324 9.56067,27.71211 4.76932,41.09641 -3.74104,10.7387 -12.7171,18.14372 -20.47441,25.96269" /></g></svg>